<svg width="1920" height="1170" viewBox="0 0 1920 1170" fill="none" xmlns="http://www.w3.org/2000/svg">
<path d="M0 1080C465.147 730.798 660.769 142.033 1085.83 163.768C1510.88 185.502 1751.91 476.745 1815.67 320.256C1879.43 163.768 1805.04 80.6934 1920 1" stroke="#E3E3E3"/>
<path d="M0 1165.86C8.72697 1157.82 457.601 1253.43 660.947 791.529C672.215 764.772 685.456 740.45 703.831 717.148C744.677 665.349 801.594 621.671 861.336 589.626C914.275 561.229 969.831 537.387 1029.28 523.078C1062.38 515.111 1095.98 512.738 1129.78 508.784C1164.04 504.775 1198.07 499.448 1232.38 495.781C1292.05 489.404 1350.74 488.891 1410.76 487.786C1483.36 486.448 1563.08 480.846 1630.44 453.462C1671.33 436.838 1704.5 396 1784 379C1858.82 363.001 1863 423.538 1920 423.538" stroke="#E3E3E3"/>
</svg>
